<svg viewBox="0 0 238.33571 67.871162" xmlns="http://www.w3.org/2000/svg">
  <defs>
    <linearGradient id="a" x1="0" y1="0" x2="1" y2="0" gradientUnits="userSpaceOnUse" gradientTransform="matrix(184.861 147.565 -135.5 201.321 18.8607 14.7175)">
      <stop offset="0%" stop-color="#b476ff"/>
      <stop offset="22%" stop-color="#ffb69c"/>
      <stop offset="22%" stop-color="#ffda90"/>
      <stop offset="53%" stop-color="#fff"/>
      <stop offset="53%" stop-color="#73ffd5"/>
      <stop offset="81%" stop-color="#a1eeff"/>
      <stop offset="100%" stop-color="#e4fffa"/>
    </linearGradient>
  </defs>
  <g fill="#e04e39" fill-rule="evenodd">
    <path d="m 509.512,137.759 c 0,0 -12.609,9.781 -23.708,8.69 -11.098,-1.093 -7.613,-25.892 -7.613,-25.892 0,0 2.393,-22.744 -4.144,-24.655 -6.52,-1.895 -14.568,5.927 -14.568,5.927 0,0 -10.006,11.098 -14.793,25.249 l -1.317,0.433 c 0,0 1.526,-24.815 -0.209,-30.469 -1.3,-2.827 -13.267,-2.602 -15.226,2.393 -1.96,5.012 -11.532,39.818 -12.191,54.402 0,0 -18.712,15.885 -35.015,18.487 -16.318,2.618 -20.237,-7.614 -20.237,-7.614 0,0 44.378,-12.4 42.852,-47.864 -1.51,-35.464 -35.785,-22.342 -39.656,-19.434 -3.759,2.826 -23.788,14.905 -29.634,48.362 -0.193,1.124 -0.546,6.103 -0.546,6.103 0,0 -17.186,11.516 -26.76,14.568 0,0 26.76,-45.037 -5.862,-65.484 -9.175,-5.523 -17.172,-0.441 -21.929,4.224 -2.921,2.865 39.549,-43.591 29.751,-85.159 C 304.05,0.238 294.155,-1.882 285.08,1.33 c -13.78,5.429 -19,13.476 -19,13.476 0,0 -17.845,25.891 -21.99,64.408 -4.127,38.5 -10.214,85.063 -10.214,85.063 0,0 -8.497,8.272 -16.32,8.705 -7.837,0.418 -4.352,-23.29 -4.352,-23.29 0,0 6.087,-36.106 5.67,-42.21 -0.45,-6.087 -0.884,-9.348 -8.063,-11.516 -7.18,-2.184 -15.018,6.955 -15.018,6.955 0,0 -20.655,31.32 -22.39,36.107 l -1.108,1.975 -1.076,-1.317 c 0,0 14.568,-42.644 0.658,-43.286 -13.925,-0.659 -23.065,15.226 -23.065,15.226 0,0 -15.885,26.55 -16.543,29.586 l -1.076,-1.3 c 0,0 6.52,-30.888 5.22,-38.517 -1.317,-7.613 -8.481,-6.087 -8.481,-6.087 0,0 -9.14,-1.093 -11.532,4.786 -2.394,5.879 -11.099,44.812 -12.191,57.212 0,0 -22.84,16.319 -37.858,16.528 -15.002,0.224 -13.476,-9.509 -13.476,-9.509 0,0 55.044,-18.84 40.026,-56.04 -6.746,-9.572 -14.568,-12.576 -25.666,-12.367 -11.1,0.225 -24.864,6.987 -33.778,27 -4.273,9.54 -5.815,18.615 -6.698,25.458 0,0 -9.621,1.975 -14.841,-2.378 -5.236,-4.352 -7.919,0 -7.919,0 0,0 -8.962,11.436 -0.048,14.906 8.93,3.485 22.84,5.107 22.84,5.107 1.285,6.088 4.995,16.448 15.87,24.687 16.318,12.4 47.622,-1.14 47.622,-1.14 l 12.834,-7.196 c 0,0 0.433,11.774 9.797,13.492 9.348,1.719 13.267,-0.032 29.586,-39.624 9.573,-20.238 10.231,-19.146 10.231,-19.146 1.077,-0.225 -6.312,38.5 -3.485,48.94 2.827,10.457 15.227,9.364 15.227,9.364 0,0 6.746,1.301 12.19,-17.844 5.43,-19.146 15.886,-40.251 15.886,-40.251 1.285,0 -3.277,39.592 3.678,52.217 6.97,12.624 25.024,4.24 25.024,4.24 0,0 12.625,-6.36 14.584,-8.32 0,0 14.97,12.753 36.09,10.44 47.222,-9.3 64.023,-21.86 64.023,-21.86 0,0 8.111,20.56 33.248,22.47 28.702,2.169 44.379,-15.884 44.379,-15.884 0,0 -0.225,11.74 9.781,15.885 10.023,4.128 16.753,-19.114 16.753,-19.114 l 16.752,-46.161 c 1.526,0 2.393,30.019 18.937,34.805 16.528,4.787 38.066,-11.21 38.066,-11.21 0,0 5.22,-2.876 4.353,-11.581 -0.883,-8.706 -8.705,-5.461 -8.705,-5.461 z M 73.756,115.979 c 5.862,5.654 3.694,17.829 -7.405,25.442 -11.082,7.63 -16.094,6.103 -16.094,6.103 0.659,-25.891 17.636,-37.215 23.499,-31.545 z M 290.22,26.563 c 3.694,19.58 -32.412,77.884 -32.412,77.884 0.433,-13.059 13.267,-57.212 13.267,-57.212 0,0 15.435,-40.251 19.145,-20.672 z m -35.689,148.588 c 0,0 -2.827,-9.573 5.22,-36.332 8.063,-26.76 26.984,-16.319 26.984,-16.319 0,0 13.058,10.007 2.827,36.766 -10.216,26.758 -35.031,15.885 -35.031,15.885 z m 110.087,-52.426 c 8.915,-16.319 15.885,-7.405 15.885,-7.405 0,0 7.614,8.272 -1.092,20.672 -8.705,12.4 -21.314,11.532 -21.314,11.532 0,0 -2.393,-8.496 6.521,-24.799 z" transform="matrix(.29017 0 0 .29017 87.9374453 -.031616)"/>
    <path d="m 453.663,188.753 v -3.124 h 1.981 c 0.275,0 0.55,0.028 0.839,0.057 a 3.2,3.2 0 0 1 0.796,0.217 c 0.245,0.102 0.433,0.246 0.578,0.434 0.16,0.188 0.231,0.449 0.231,0.767 0,0.723 -0.216,1.186 -0.65,1.374 -0.434,0.188 -0.998,0.275 -1.678,0.275 z m -2.358,-4.961 v 11.889 h 2.358 v -5.077 h 1.475 l 2.893,5.077 h 2.473 l -3.182,-5.193 a 5.62,5.62 0 0 0 1.23,-0.26 2.87,2.87 0 0 0 0.983,-0.564 c 0.29,-0.246 0.506,-0.564 0.665,-0.955 0.174,-0.39 0.246,-0.853 0.246,-1.403 0,-1.287 -0.405,-2.198 -1.2,-2.719 -0.81,-0.535 -1.967,-0.795 -3.457,-0.795 z m -3.775,5.959 c 0,-1.215 0.203,-2.329 0.622,-3.341 a 8.122,8.122 0 0 1 1.707,-2.618 7.74,7.74 0 0 1 2.53,-1.736 7.895,7.895 0 0 1 3.14,-0.622 c 1.099,0 2.14,0.203 3.11,0.622 0.983,0.42 1.822,0.998 2.545,1.736 0.723,0.737 1.287,1.605 1.72,2.618 0.42,1.012 0.637,2.126 0.637,3.34 a 8.775,8.775 0 0 1 -0.636,3.356 c -0.434,1.013 -0.998,1.91 -1.721,2.647 a 7.623,7.623 0 0 1 -2.546,1.75 c -0.969,0.42 -2.01,0.622 -3.11,0.622 a 7.895,7.895 0 0 1 -3.138,-0.622 7.564,7.564 0 0 1 -2.531,-1.75 c -0.723,-0.738 -1.288,-1.634 -1.707,-2.647 -0.42,-1.027 -0.622,-2.14 -0.622,-3.355 z m -2.907,0 c 0,1.634 0.304,3.095 0.897,4.397 0.607,1.316 1.403,2.43 2.4,3.355 a 10.611,10.611 0 0 0 3.486,2.126 c 1.316,0.492 2.69,0.738 4.122,0.738 a 11.7,11.7 0 0 0 4.137,-0.738 10.611,10.611 0 0 0 3.486,-2.126 c 0.998,-0.926 1.793,-2.04 2.4,-3.355 0.594,-1.302 0.883,-2.763 0.883,-4.397 0,-1.606 -0.29,-3.067 -0.882,-4.368 -0.608,-1.317 -1.403,-2.43 -2.401,-3.341 a 10.611,10.611 0 0 0 -3.486,-2.127 11.4,11.4 0 0 0 -4.137,-0.752 c -1.431,0 -2.806,0.246 -4.122,0.752 a 10.611,10.611 0 0 0 -3.485,2.127 c -0.998,0.91 -1.794,2.024 -2.401,3.34 -0.593,1.302 -0.897,2.763 -0.897,4.369 z" transform="matrix(.29017 0 0 .29017 87.9374453 -.031616)"/>
  </g>
  <g clip-rule="evenodd" fill-rule="evenodd" stroke-linecap="round" stroke-linejoin="round" stroke-miterlimit="1.5">
    <path d="m 130.778,139.815 c 0,-2.281 -1.852,-4.133 -4.133,-4.133 H 94.911 c -2.281,0 -4.133,1.852 -4.133,4.133 v 31.734 c 0,2.281 1.852,4.133 4.133,4.133 h 31.734 c 2.281,0 4.133,-1.852 4.133,-4.133 z" fill="#a1ffee" transform="scale(.3289) rotate(45 73.60317221 134.1068282)"/>
    <path d="m 89.208,133.832 0.145,-0.135 0.147,-0.131 0.152,-0.128 0.154,-0.124 0.157,-0.121 0.16,-0.116 0.163,-0.114 0.167,-0.109 0.169,-0.106 0.171,-0.101 0.175,-0.098 0.177,-0.093 0.18,-0.09 0.182,-0.085 0.185,-0.081 0.175,-0.072 0.106,-0.041 0.096,-0.035 0.095,-0.035 0.096,-0.033 0.097,-0.032 0.097,-0.031 0.098,-0.03 0.098,-0.028 0.099,-0.027 0.099,-0.027 0.1,-0.025 0.1,-0.023 0.1,-0.023 0.101,-0.021 0.101,-0.02 0.102,-0.019 0.103,-0.018 0.102,-0.016 0.103,-0.015 0.103,-0.014 0.104,-0.013 0.104,-0.011 0.104,-0.01 0.104,-0.009 0.105,-0.007 0.106,-0.006 0.105,-0.004 0.105,-0.004 0.106,-0.002 h 31.945 l 0.105,0.002 0.106,0.003 0.105,0.005 0.105,0.006 0.104,0.007 0.105,0.009 0.104,0.01 0.104,0.011 0.104,0.013 0.103,0.014 0.103,0.015 0.103,0.016 0.102,0.018 0.101,0.018 0.102,0.021 0.101,0.021 0.1,0.023 0.101,0.023 0.099,0.025 0.099,0.026 0.099,0.028 0.098,0.028 0.098,0.03 0.097,0.031 0.097,0.032 0.192,0.068 0.094,0.035 0.107,0.041 0.175,0.072 0.185,0.081 0.182,0.085 0.18,0.09 0.177,0.093 0.175,0.098 0.171,0.101 0.169,0.106 0.167,0.109 0.163,0.113 0.16,0.117 0.157,0.121 0.155,0.124 0.151,0.128 0.148,0.131 0.144,0.135 0.142,0.138 0.138,0.142 0.135,0.144 0.131,0.148 0.128,0.151 0.124,0.155 0.12,0.157 0.117,0.16 0.114,0.163 0.109,0.166 0.105,0.169 0.102,0.172 0.098,0.175 0.093,0.177 0.09,0.18 0.085,0.182 0.081,0.185 0.071,0.175 0.042,0.106 0.035,0.095 0.068,0.192 0.032,0.097 0.031,0.097 0.058,0.196 0.027,0.099 0.052,0.198 0.023,0.101 0.023,0.1 0.021,0.101 0.02,0.102 0.019,0.101 0.018,0.102 0.016,0.102 0.015,0.104 0.014,0.103 0.013,0.104 0.011,0.103 0.01,0.104 0.016,0.21 0.006,0.105 0.004,0.105 0.004,0.106 0.002,0.105 v 31.945 l -0.002,0.106 -0.004,0.106 -0.004,0.105 -0.006,0.105 -0.008,0.104 -0.008,0.105 -0.01,0.104 -0.011,0.104 -0.013,0.104 -0.014,0.103 -0.015,0.102 -0.016,0.103 -0.018,0.103 -0.019,0.101 -0.02,0.102 -0.021,0.101 -0.023,0.1 -0.023,0.1 -0.025,0.1 -0.027,0.099 -0.027,0.099 -0.029,0.098 -0.029,0.098 -0.031,0.097 -0.032,0.096 -0.034,0.097 -0.034,0.096 -0.035,0.094 -0.042,0.106 -0.071,0.176 -0.081,0.185 -0.085,0.182 -0.09,0.18 -0.093,0.177 -0.098,0.174 -0.102,0.172 -0.105,0.169 -0.109,0.166 -0.114,0.164 -0.117,0.16 -0.12,0.157 -0.124,0.154 -0.128,0.151 -0.131,0.148 -0.135,0.145 -0.138,0.141 -0.142,0.139 -0.144,0.134 -0.148,0.132 -0.151,0.127 -0.155,0.124 -0.157,0.121 -0.16,0.117 -0.163,0.113 -0.167,0.11 -0.169,0.105 -0.171,0.102 -0.175,0.097 -0.177,0.094 -0.18,0.089 -0.182,0.085 -0.185,0.081 -0.175,0.072 -0.107,0.041 -0.094,0.036 -0.096,0.034 -0.096,0.033 -0.097,0.032 -0.097,0.031 -0.097,0.03 -0.099,0.029 -0.099,0.027 -0.099,0.026 -0.099,0.025 -0.101,0.024 -0.1,0.023 -0.101,0.021 -0.102,0.02 -0.101,0.019 -0.102,0.017 -0.103,0.017 -0.103,0.015 -0.103,0.014 -0.104,0.012 -0.104,0.011 -0.104,0.01 -0.105,0.009 -0.104,0.007 -0.105,0.006 -0.105,0.005 -0.106,0.003 -0.105,0.002 -0.093,0.001 h -31.76 l -0.092,-0.001 -0.106,-0.002 -0.105,-0.003 -0.106,-0.005 -0.105,-0.006 -0.104,-0.007 -0.105,-0.009 -0.104,-0.01 -0.104,-0.011 -0.104,-0.012 -0.103,-0.014 -0.103,-0.015 -0.102,-0.017 -0.102,-0.017 -0.102,-0.019 -0.102,-0.02 -0.101,-0.021 -0.1,-0.023 -0.101,-0.024 -0.099,-0.025 -0.099,-0.026 -0.099,-0.027 -0.098,-0.029 -0.098,-0.03 -0.097,-0.031 -0.096,-0.032 -0.097,-0.033 -0.095,-0.034 -0.095,-0.036 -0.107,-0.041 -0.175,-0.072 -0.185,-0.081 -0.182,-0.085 -0.18,-0.089 -0.177,-0.094 -0.174,-0.097 -0.172,-0.102 -0.169,-0.105 -0.166,-0.11 -0.164,-0.113 -0.16,-0.117 -0.157,-0.12 -0.154,-0.125 -0.152,-0.127 -0.147,-0.132 -0.145,-0.135 -0.142,-0.138 -0.138,-0.141 -0.134,-0.145 -0.132,-0.148 -0.127,-0.151 -0.125,-0.154 -0.12,-0.157 -0.117,-0.16 -0.113,-0.164 -0.11,-0.166 -0.105,-0.169 -0.102,-0.172 -0.097,-0.174 -0.094,-0.177 -0.089,-0.18 -0.086,-0.182 -0.08,-0.185 -0.072,-0.175 -0.041,-0.107 -0.036,-0.095 -0.034,-0.095 -0.033,-0.096 -0.033,-0.097 -0.03,-0.097 -0.03,-0.098 -0.029,-0.098 -0.027,-0.099 -0.026,-0.099 -0.025,-0.1 -0.024,-0.1 -0.023,-0.1 -0.021,-0.102 -0.02,-0.101 -0.019,-0.101 -0.018,-0.103 -0.016,-0.102 -0.015,-0.103 -0.014,-0.104 -0.012,-0.103 -0.012,-0.104 -0.01,-0.104 -0.008,-0.105 -0.007,-0.104 -0.006,-0.105 -0.005,-0.106 -0.004,-0.105 -0.002,-0.106 v -0.092 -31.76 -0.093 l 0.002,-0.105 0.004,-0.106 0.004,-0.105 0.007,-0.105 0.007,-0.105 0.008,-0.104 0.01,-0.105 0.012,-0.104 0.012,-0.103 0.014,-0.103 0.015,-0.103 0.016,-0.103 0.018,-0.102 0.019,-0.102 0.02,-0.101 0.021,-0.101 0.023,-0.101 0.024,-0.1 0.025,-0.099 0.026,-0.1 0.027,-0.098 0.029,-0.098 0.03,-0.098 0.031,-0.097 0.032,-0.097 0.033,-0.096 0.034,-0.095 0.036,-0.096 0.041,-0.106 0.072,-0.175 0.08,-0.185 0.086,-0.182 0.089,-0.18 0.093,-0.177 0.098,-0.175 0.102,-0.172 0.105,-0.169 0.11,-0.166 0.113,-0.163 0.117,-0.16 0.12,-0.158 0.125,-0.154 0.127,-0.151 0.132,-0.148 0.134,-0.145 0.138,-0.141 z m 5.704,5.984 h -0.001 v 31.719 l 0.001,0.012 10e-4,0.001 0.011,0.001 h 31.708 l 0.011,-0.001 h 0.001 l 10e-4,-0.001 v -0.012 -31.707 -0.012 h -10e-4 v -0.001 h -0.001 -0.011 -31.707 -0.012 z" fill="#253b59" transform="scale(.3289) rotate(45 73.60317221 134.1068282)"/>
    <path d="M 210,24.9 C 210,16.125 203.458,9 195.4,9 H 24.6 C 16.542,9 10,16.125 10,24.9 v 127.2 c 0,8.775 6.542,15.9 14.6,15.9 h 170.8 c 8.058,0 14.6,-7.125 14.6,-15.9 z" fill="url(#a)" stroke="#243a59" stroke-width="10.42" transform="matrix(.26458 0 0 .24295 -1.26735415 17.88012845)"/>
    <path d="m 26,17.261 v 139.078 c -4.41,-0.94 -7.721,-4.861 -7.721,-9.55 V 26.811 c 0,-4.688 3.311,-8.61 7.721,-9.55 z" fill="#fff" fill-opacity=".9" transform="matrix(.26458 .0012 0 .25778 -2.13483558 16.97509472)"/>
    <ellipse cx="76.321999" cy="78.870003" rx="9" ry="8.9090004" fill="#243a59" transform="matrix(.29398 0 0 .29698 -4.7283343 15.42895176)"/>
    <ellipse cx="145.23399" cy="78.870003" rx="9" ry="8.9090004" fill="#243a59" transform="matrix(.29398 0 0 .29698 -4.78900325 15.42895176)"/>
    <g>
      <path d="m 134.746,98.997 0.285,0.03 0.282,0.048 0.278,0.066 0.274,0.084 0.267,0.101 0.26,0.117 0.251,0.134 0.242,0.149 0.232,0.165 0.219,0.179 0.208,0.193 0.193,0.205 0.18,0.217 0.165,0.229 0.149,0.238 0.132,0.247 0.116,0.255 0.098,0.262 0.081,0.268 0.062,0.272 0.044,0.276 0.026,0.277 0.006,0.279 -0.012,0.279 -0.031,0.277 -0.049,0.275 -0.068,0.271 -0.086,0.266 -0.103,0.26 -0.121,0.253 -0.137,0.245 -0.154,0.235 -0.169,0.225 -0.184,0.214 -0.198,0.202 -0.211,0.189 -0.223,0.174 -0.322,0.236 -0.334,0.241 -0.333,0.237 -0.333,0.234 -0.333,0.23 -0.332,0.226 -0.332,0.223 -0.332,0.219 -0.332,0.216 -0.331,0.213 -0.331,0.209 -0.33,0.205 -0.33,0.202 -0.33,0.199 -0.329,0.195 -0.329,0.192 -0.329,0.189 -0.328,0.185 -0.328,0.182 -0.328,0.178 -0.327,0.176 -0.327,0.172 -0.326,0.168 -0.326,0.166 -0.325,0.162 -0.325,0.159 -0.325,0.156 -0.324,0.152 -0.323,0.15 -0.323,0.146 -0.323,0.143 -0.322,0.14 -0.322,0.137 -0.321,0.134 -0.32,0.131 -0.32,0.127 -0.32,0.125 -0.319,0.122 -0.318,0.118 -0.318,0.116 -0.317,0.113 -0.317,0.109 -0.316,0.107 -0.315,0.104 -0.314,0.101 -0.315,0.098 -0.313,0.096 -0.313,0.092 -0.312,0.09 -0.311,0.087 -0.311,0.084 -0.31,0.081 -0.309,0.079 -0.308,0.075 -0.308,0.074 -0.307,0.07 -0.306,0.068 -0.306,0.065 -0.304,0.062 -0.304,0.06 -0.303,0.058 -0.302,0.054 -0.302,0.052 -0.3,0.05 -0.3,0.047 -0.298,0.045 -0.298,0.042 -0.297,0.04 -0.296,0.037 -0.295,0.035 -0.294,0.033 -0.294,0.03 -0.292,0.028 -0.291,0.026 -0.29,0.023 -0.29,0.021 -0.288,0.019 -0.287,0.016 -0.286,0.015 -0.286,0.012 -0.284,0.01 -0.283,0.008 -0.282,0.006 -0.281,0.004 -0.28,0.001 h -0.278 l -0.278,-0.002 -0.276,-0.005 -0.276,-0.006 -0.274,-0.008 -0.273,-0.01 -0.272,-0.012 -0.271,-0.014 -0.269,-0.016 -0.269,-0.018 -0.267,-0.019 -0.266,-0.021 -0.265,-0.023 -0.263,-0.025 -0.262,-0.026 -0.261,-0.028 -0.26,-0.029 -0.259,-0.032 -0.257,-0.033 -0.256,-0.034 -0.255,-0.036 -0.253,-0.037 -0.253,-0.039 -0.25,-0.041 -0.25,-0.042 -0.248,-0.043 -0.247,-0.045 -0.246,-0.046 -0.244,-0.047 -0.243,-0.049 -0.241,-0.05 -0.24,-0.052 -0.239,-0.052 -0.238,-0.054 -0.236,-0.055 -0.234,-0.056 -0.234,-0.058 -0.232,-0.058 -0.23,-0.06 -0.229,-0.061 -0.228,-0.062 -0.226,-0.062 -0.225,-0.064 -0.223,-0.065 -0.222,-0.066 -0.221,-0.067 -0.219,-0.067 -0.218,-0.069 -0.216,-0.069 -0.215,-0.07 -0.213,-0.071 -0.212,-0.072 -0.21,-0.073 -0.209,-0.073 -0.207,-0.074 -0.206,-0.075 -0.204,-0.076 -0.203,-0.076 -0.202,-0.076 -0.2,-0.078 -0.198,-0.078 -0.197,-0.078 -0.195,-0.079 -0.194,-0.08 -0.193,-0.08 -0.19,-0.08 -0.19,-0.081 -0.187,-0.082 -0.187,-0.082 -0.184,-0.082 -0.183,-0.082 -0.182,-0.083 -0.18,-0.083 -0.178,-0.084 -0.177,-0.083 -0.175,-0.084 -0.174,-0.084 -0.172,-0.085 -0.171,-0.084 -0.169,-0.085 -0.167,-0.085 -0.166,-0.084 -0.164,-0.085 -0.162,-0.085 -0.161,-0.085 -0.16,-0.085 -0.158,-0.086 -0.156,-0.085 -0.158,-0.087 -0.3,-0.167 -0.298,-0.169 -0.291,-0.169 -0.285,-0.168 -0.278,-0.166 -0.271,-0.166 -0.264,-0.164 -0.258,-0.163 -0.251,-0.161 -0.245,-0.159 -0.237,-0.157 -0.231,-0.155 -0.224,-0.152 -0.217,-0.15 -0.21,-0.147 -0.203,-0.144 -0.196,-0.142 -0.189,-0.138 -0.182,-0.134 -0.175,-0.131 -0.167,-0.127 -0.161,-0.124 -0.153,-0.119 -0.146,-0.115 -0.139,-0.11 -0.132,-0.106 -0.124,-0.101 -0.117,-0.096 -0.114,-0.095 -0.192,-0.162 -0.166,-0.144 -0.136,-0.119 -0.109,-0.098 -0.078,-0.072 -0.202,-0.198 -0.188,-0.21 -0.174,-0.222 -0.159,-0.232 -0.142,-0.242 -0.126,-0.251 -0.109,-0.258 -0.091,-0.264 -0.073,-0.27 -0.055,-0.273 -0.037,-0.277 -0.017,-0.278 0.001,-0.279 0.019,-0.279 0.039,-0.276 0.056,-0.273 0.075,-0.269 0.094,-0.264 0.11,-0.258 0.128,-0.249 0.144,-0.241 0.16,-0.232 0.175,-0.22 0.19,-0.21 0.203,-0.196 0.216,-0.183 0.228,-0.169 0.239,-0.155 0.248,-0.138 0.258,-0.123 0.265,-0.106 0.271,-0.088 0.278,-0.072 0.281,-0.053 0.284,-0.036 0.286,-0.017 0.287,0.001 0.285,0.019 0.284,0.037 0.281,0.056 0.277,0.073 0.271,0.09 0.264,0.108 0.257,0.124 0.248,0.14 0.237,0.156 0.227,0.171 0.215,0.184 0.042,0.039 0.042,0.037 0.072,0.064 0.101,0.087 0.132,0.112 0.07,0.058 0.081,0.066 0.087,0.071 0.094,0.076 0.101,0.08 0.107,0.084 0.113,0.088 0.12,0.092 0.126,0.096 0.132,0.099 0.139,0.102 0.145,0.106 0.151,0.109 0.157,0.111 0.163,0.115 0.169,0.116 0.175,0.12 0.181,0.121 0.186,0.123 0.192,0.125 0.198,0.127 0.204,0.129 0.209,0.13 0.215,0.131 0.22,0.132 0.226,0.133 0.231,0.134 0.236,0.134 0.246,0.137 0.118,0.065 0.124,0.068 0.126,0.067 0.126,0.068 0.128,0.067 0.129,0.068 0.131,0.067 0.131,0.068 0.133,0.067 0.134,0.067 0.135,0.067 0.137,0.067 0.138,0.067 0.139,0.066 0.14,0.067 0.141,0.066 0.143,0.066 0.143,0.065 0.145,0.065 0.146,0.065 0.148,0.065 0.148,0.064 0.3,0.128 0.152,0.063 0.153,0.063 0.154,0.062 0.155,0.062 0.157,0.062 0.157,0.06 0.158,0.061 0.16,0.06 0.16,0.059 0.162,0.059 0.163,0.058 0.164,0.057 0.165,0.057 0.166,0.057 0.167,0.055 0.168,0.055 0.169,0.055 0.17,0.053 0.171,0.053 0.172,0.052 0.173,0.051 0.174,0.051 0.176,0.05 0.176,0.048 0.177,0.049 0.178,0.047 0.179,0.046 0.18,0.046 0.181,0.044 0.182,0.044 0.183,0.042 0.184,0.042 0.185,0.041 0.186,0.04 0.186,0.038 0.188,0.038 0.189,0.037 0.189,0.035 0.191,0.035 0.191,0.033 0.192,0.032 0.193,0.032 0.195,0.03 0.194,0.028 0.196,0.028 0.197,0.027 0.198,0.025 0.198,0.024 0.2,0.023 0.2,0.021 0.202,0.02 0.202,0.019 0.203,0.018 0.204,0.016 0.204,0.015 0.206,0.013 0.206,0.012 0.208,0.011 0.208,0.009 0.209,0.008 0.21,0.006 0.211,0.005 0.212,0.003 0.212,0.002 h 0.214 l 0.214,-0.001 0.215,-0.003 0.216,-0.004 0.217,-0.006 0.218,-0.008 0.218,-0.01 0.22,-0.011 0.22,-0.012 0.221,-0.015 0.222,-0.016 0.223,-0.018 0.224,-0.019 0.224,-0.022 0.226,-0.023 0.226,-0.025 0.227,-0.027 0.228,-0.029 0.229,-0.031 0.23,-0.032 0.231,-0.035 0.231,-0.036 0.233,-0.039 0.233,-0.04 0.234,-0.042 0.235,-0.045 0.236,-0.046 0.237,-0.049 0.237,-0.051 0.239,-0.052 0.239,-0.055 0.241,-0.057 0.241,-0.06 0.242,-0.061 0.243,-0.064 0.243,-0.066 0.245,-0.068 0.246,-0.071 0.246,-0.073 0.248,-0.075 0.248,-0.077 0.249,-0.08 0.25,-0.083 0.251,-0.084 0.251,-0.088 0.253,-0.09 0.254,-0.092 0.254,-0.095 0.255,-0.097 0.257,-0.1 0.257,-0.103 0.258,-0.105 0.259,-0.108 0.259,-0.11 0.261,-0.114 0.261,-0.116 0.263,-0.118 0.263,-0.122 0.264,-0.124 0.265,-0.128 0.266,-0.13 0.267,-0.133 0.268,-0.136 0.268,-0.138 0.269,-0.142 0.271,-0.145 0.271,-0.148 0.272,-0.151 0.273,-0.153 0.273,-0.157 0.275,-0.16 0.275,-0.164 0.276,-0.166 0.277,-0.17 0.278,-0.173 0.279,-0.176 0.279,-0.179 0.281,-0.183 0.281,-0.186 0.282,-0.189 0.283,-0.192 0.283,-0.197 0.285,-0.199 0.285,-0.203 0.286,-0.206 0.298,-0.219 0.235,-0.16 0.244,-0.145 0.254,-0.129 0.263,-0.113 0.269,-0.096 0.275,-0.078 0.279,-0.061 0.284,-0.042 0.285,-0.025 0.287,-0.007 z" fill="#253b59" transform="matrix(.2966 0 0 .30475 -4.7845318 15.1501603)"/>
    </g>
  </g>
  <g fill="#4d4d4d" stroke="#4d4d4d" stroke-width=".88">
    <path d="M-41.010418 14.552083H-38.3645824V43.656251H-41.010418z" transform="matrix(.45455 0 0 .45455 90.9290493 28.747125)"/>
    <path transform="matrix(0 .45455 -.45455 0 90.9290493 28.747125)" d="M27.78125 25.135414H30.4270856V54.239582H27.78125z"/>
  </g>
</svg>
